HIERARCHY
ROOT Hips
{
    OFFSET 0.000000 0.000000 0.000000
    CHANNELS 6 Xposition Yposition Zposition Zrotation Xrotation Yrotation
        JOINT Chest
        {
            OFFSET -0.000000 31.571314 -0.000000
            CHANNELS 3 Zrotation Xrotation Yrotation
            JOINT Neck
            {
                OFFSET -0.000000 23.394884 0.000000
                CHANNELS 3 Zrotation Xrotation Yrotation
                JOINT Head
                {
                    OFFSET -0.000000 10.877778 0.000000
                    CHANNELS 3 Zrotation Xrotation Yrotation
                    End Site
                    {
                        OFFSET -0.000000 16.811111 0.000000
                    }
                }
            }
            JOINT LeftCollar
            {
                OFFSET -0.000000 23.394884 0.000000
                CHANNELS 3 Zrotation Xrotation Yrotation
                JOINT LeftShoulder
                {
                    OFFSET 21.500002 -0.000000 0.000000
                    CHANNELS 3 Zrotation Xrotation Yrotation
                    JOINT LeftElbow
                    {
                        OFFSET 24.792776 0.000000 0.000000
                        CHANNELS 3 Zrotation Xrotation Yrotation
                        JOINT LeftWrist
                        {
                            OFFSET 26.439411 0.000000 0.000000
                            CHANNELS 3 Zrotation Xrotation Yrotation
                            End Site
                            {
                                OFFSET 0.000000 -14.833334 0.000000
                            }
                        }
                    }
                }
            }
            JOINT RightCollar
            {
                OFFSET -0.000000 23.394884 0.000000
                CHANNELS 3 Zrotation Xrotation Yrotation
                JOINT RightShoulder
                {
                    OFFSET -21.500002 0.000000 0.000000
                    CHANNELS 3 Zrotation Xrotation Yrotation
                    JOINT RightElbow
                    {
                        OFFSET -24.792776 0.000000 0.000000
                        CHANNELS 3 Zrotation Xrotation Yrotation
                        JOINT RightWrist
                        {
                            OFFSET -26.439411 0.000000 0.000000
                            CHANNELS 3 Zrotation Xrotation Yrotation
                            End Site
                            {
                                OFFSET -0.000000 -14.833334 0.000000
                            }
                        }
                    }
                }
            }
        }
    JOINT LeftHip
    {
        OFFSET 11.866667 0.000000 0.000000
        CHANNELS 3 Zrotation Xrotation Yrotation
        JOINT LeftKnee
        {
            OFFSET -0.000000 -38.580112 0.000000
            CHANNELS 3 Zrotation Xrotation Yrotation
            JOINT LeftAnkle
            {
                OFFSET -0.000000 -41.767254 0.000000
                CHANNELS 3 Zrotation Xrotation Yrotation
                End Site
                {
                    OFFSET -0.000000 -4.944444 16.811111
                }
            }
        }
    }
    JOINT RightHip
    {
        OFFSET -11.866667 0.000000 0.000000
        CHANNELS 3 Zrotation Xrotation Yrotation
        JOINT RightKnee
        {
            OFFSET -0.000000 -38.580112 0.000000
            CHANNELS 3 Zrotation Xrotation Yrotation
            JOINT RightAnkle
            {
                OFFSET -0.000000 -41.767254 0.000000
                CHANNELS 3 Zrotation Xrotation Yrotation
                End Site
                {
                    OFFSET -0.000000 -4.944444 16.811111
                }
            }
        }
    }
}
MOTION
Frames:    15
Frame Time:    0.010000
118.561150    88.733055    -51.201015    -2.292208    2.945570    -64.548820    1.604165    15.861897    1.214014    5.214797    -3.092314    4.988474    0.098156    -11.152244    4.857513    -20.441326    -0.790309    4.284739    -22.440491    47.924541    -41.812016    19.965668    -18.876974    -87.048309    102.695663    -3.935817    50.347984    11.920746    -0.596842    -5.594827    -55.287167    81.960747    114.744553    -54.122643    -20.100006    38.432476    -109.313980    4.988845    -55.558277    19.288424    -18.219824    5.777866    -10.015385    30.571142    5.146828    -11.513622    -6.183884    6.649202    -5.667975    -1.904456    3.380549    -2.092720    19.787823    16.599258    -2.941799    -12.449722    -14.437643    
118.437729    88.692802    -51.158363    -2.379137    3.052240    -65.275414    1.827990    15.777997    1.327307    5.468088    -2.980953    5.317054    -0.344299    -10.789524    5.142376    -20.530521    -0.762575    4.210533    -22.998156    47.720787    -41.007889    19.810526    -18.717457    -87.058983    102.663139    -3.961527    50.761711    12.060489    -0.590522    -5.485960    -52.998337    81.952133    112.145279    -53.882526    -20.084311    38.631874    -109.021286    4.758391    -55.269497    18.598284    -17.662657    5.731440    -8.838617    30.063961    5.846498    -10.884979    -6.659403    7.187020    -5.539607    -1.700109    3.338421    -2.307118    19.340475    17.396721    -2.724670    -12.488340    -14.581075    
118.306854    88.658401    -51.108994    -2.458009    3.130675    -65.972145    2.013790    15.688888    1.418474    5.699555    -2.843395    5.645874    -0.746851    -10.460032    5.436199    -20.597752    -0.739455    4.180333    -23.456982    47.622730    -40.323120    19.723583    -18.657616    -86.967155    102.702499    -3.807057    51.099468    12.214315    -0.585274    -5.375424    -51.168324    81.818871    110.015747    -53.587795    -20.041677    38.797543    -108.725685    4.550761    -54.941093    17.979212    -17.124660    5.380275    -7.784785    29.599985    6.682786    -10.625808    -7.146214    7.816275    -5.437219    -1.475653    3.298350    -2.519737    18.891790    18.165010    -2.504130    -12.529778    -14.742678    
118.169693    88.633934    -51.056992    -2.523869    3.179738    -66.645752    2.150510    15.595604    1.497920    5.891237    -2.684600    5.971067    -1.088612    -10.172410    5.736889    -20.631260    -0.781583    4.207464    -23.825533    47.685600    -39.752567    19.774441    -18.728025    -86.741524    102.794388    -3.480811    51.436928    12.376387    -0.600357    -5.259254    -50.070759    81.587807    108.657341    -53.315983    -19.979795    38.848053    -108.402626    4.322027    -54.564583    17.463570    -16.612198    4.701766    -6.977888    29.216505    7.526332    -10.671725    -7.665732    8.625966    -5.364203    -1.245278    3.290927    -2.718374    18.450584    18.867199    -2.287397    -12.563839    -14.901269    
118.025528    88.621887    -51.006001    -2.576870    3.201569    -67.305237    2.232763    15.501937    1.577708    6.032301    -2.516121    6.287622    -1.354810    -9.924621    6.038158    -20.630590    -0.801370    4.296901    -24.116152    47.803440    -39.271057    19.843979    -18.730249    -86.474091    103.165443    -2.876390    51.940819    12.547752    -0.596079    -5.134963    -49.422764    81.277679    107.797684    -53.020164    -19.869429    38.839092    -108.101082    4.131101    -54.143688    17.084997    -16.118870    3.715811    -6.521099    28.922934    8.314799    -10.926584    -8.222169    9.638942    -5.318445    -1.017757    3.346892    -2.892778    18.024090    19.469900    -2.083184    -12.581435    -15.036736    
117.872002    88.623138    -50.958210    -2.623621    3.200090    -67.959251    2.259470    15.415241    1.669638    6.122097    -2.351725    6.587964    -1.539840    -9.707988    6.332564    -20.588886    -0.818023    4.442855    -24.324656    47.980694    -38.900814    19.964333    -18.785755    -86.131851    103.582268    -2.150279    52.465603    12.726812    -0.577565    -5.004572    -49.146904    80.921616    107.377335    -52.763664    -19.747316    38.719170    -107.797028    3.931707    -53.652508    16.872574    -15.625856    2.498370    -6.472009    28.697226    9.045203    -11.289886    -8.797615    10.794291    -5.293796    -0.792779    3.491624    -3.036535    17.616377    19.948351    -1.900751    -12.576316    -15.132225    
117.706406    88.636909    -50.914047    -2.673999    3.181137    -68.613220    2.237974    15.343952    1.781843    6.153175    -2.212190    6.872536    -1.633260    -9.501217    6.618898    -20.504007    -0.845649    4.646442    -24.492615    48.196857    -38.596901    20.137545    -18.860167    -85.733406    104.028282    -1.345164    53.063324    12.907101    -0.565044    -4.861348    -49.165310    80.567635    107.327553    -52.611706    -19.582474    38.474445    -107.446068    3.669539    -53.112946    16.844482    -15.109377    1.178587    -6.827403    28.493275    9.740552    -11.675582    -9.352798    11.970296    -5.282080    -0.564409    3.738029    -3.147603    17.229050    20.292542    -1.749008    -12.545677    -15.177943    
117.527519    88.661018    -50.872326    -2.737330    3.152126    -69.267296    2.176840    15.291647    1.917100    6.141036    -2.107205    7.134853    -1.648268    -9.289576    6.888592    -20.375662    -0.874652    4.885312    -24.670410    48.413433    -38.298012    20.313385    -18.895378    -85.324608    104.525887    -0.491482    53.777519    13.090125    -0.540673    -4.715749    -49.185421    80.245888    107.352501    -52.477100    -19.415413    38.194588    -107.136658    3.458300    -52.515701    17.002914    -14.549800    -0.077474    -7.521401    28.260708    10.408738    -12.021037    -9.837505    13.028901    -5.275621    -0.325694    4.082873    -3.227553    16.862484    20.507195    -1.632987    -12.491489    -15.170236    
117.335426    88.692245    -50.830120    -2.820979    3.120657    -69.915619    2.088908    15.260093    2.071715    6.093599    -2.040451    7.376049    -1.598621    -9.064615    7.141610    -20.207912    -0.899648    5.145872    -24.904758    48.596378    -37.955082    20.455271    -18.873476    -84.942390    105.034874    0.353521    54.584217    13.269111    -0.520833    -4.571744    -49.219131    79.982185    107.465775    -52.425800    -19.249512    37.855812    -106.777222    3.178210    -51.851753    17.331661    -13.935945    -1.090522    -8.437203    27.968262    11.016768    -12.288336    -10.206883    13.853689    -5.269297    -0.068454    4.507517    -3.280010    16.514069    20.609438    -1.552881    -12.418962    -15.111209    
117.131058    88.726822    -50.782837    -2.930942    3.092059    -70.547516    1.986216    15.249633    2.236921    6.028688    -2.003723    7.596313    -1.512088    -8.831635    7.375101    -20.005857    -0.925410    5.408517    -25.241272    48.729931    -37.517029    20.534147    -18.794073    -84.622040    105.529671    1.157104    55.451324    13.438983    -0.506156    -4.439852    -49.238232    79.790039    107.631943    -52.435474    -19.094576    37.505768    -106.400337    2.902506    -51.166245    17.796347    -13.264705    -1.699554    -9.433032    27.617708    11.493494    -12.460616    -10.435831    14.374242    -5.262472    0.218173    4.982635    -3.309012    16.177647    20.624290    -1.505679    -12.335716    -15.007352    
116.916489    88.760773    -50.724976    -3.069824    3.069039    -71.147903    1.879550    15.258183    2.399352    5.963685    -1.983123    7.796753    -1.417685    -8.601367    7.587622    -19.780161    -0.947990    5.658259    -25.701298    48.804466    -36.951473    20.549170    -18.649792    -84.388901    105.987137    1.906673    56.346737    13.592076    -0.517895    -4.329971    -49.388939    79.677010    107.991142    -52.530735    -18.972160    37.141571    -105.990936    2.638731    -50.494949    18.350502    -12.543972    -1.796423    -10.378154    27.243402    11.760502    -12.538003    -10.526025    14.570626    -5.259032    0.544350    5.469469    -3.319238    15.844975    20.584940    -1.485025    -12.250287    -14.870076    
116.695702    88.790268    -50.651138    -3.234209    3.052268    -71.699562    1.776558    15.278596    2.543148    5.913613    -1.964369    7.978830    -1.340559    -8.383854    7.779776    -19.544149    -0.972836    5.887936    -26.273321    48.838490    -36.259563    20.453491    -18.485529    -84.265259    106.448952    2.619769    57.231030    13.727924    -0.493726    -4.250261    -49.426498    79.608475    108.275162    -52.604668    -18.851469    36.887150    -105.603378    2.484891    -49.885357    18.943764    -11.794796    -1.346144    -11.178651    26.898083    11.760725    -12.533420    -10.504776    14.468550    -5.266476    0.913843    5.924884    -3.315164    15.508502    20.528193    -1.478058    -12.173003    -14.714370    
116.474060    88.811882    -50.556652    -3.416368    3.039758    -72.184845    1.679568    15.300934    2.651805    5.894354    -1.930693    8.142997    -1.304472    -8.192069    7.950920    -19.311180    -1.004653    6.092632    -26.924704    48.863655    -35.461205    20.334936    -18.335955    -84.219330    106.799820    3.238595    58.026756    13.837006    -0.529845    -4.209335    -49.923695    79.598846    109.064064    -52.851261    -18.804825    36.555222    -105.134560    2.314386    -49.351978    19.529091    -11.047648    -0.382793    -11.782673    26.635895    11.463322    -12.467311    -10.417539    14.129467    -5.294331    1.325034    6.307183    -3.301031    15.162358    20.488728    -1.463502    -12.115263    -14.556698    
116.257286    88.822823    -50.438477    -3.605108    3.027964    -72.587547    1.588418    15.314144    2.709659    5.908301    -1.871222    8.291617    -1.316778    -8.034938    8.103391    -19.095114    -1.033886    6.278162    -27.610277    48.898773    -34.595219    20.216490    -18.226303    -84.234871    107.101921    3.797629    58.766460    13.925602    -0.516529    -4.207654    -50.338390    79.600922    109.776947    -53.000656    -18.744379    36.414215    -104.738953    2.339033    -48.943581    20.068914    -10.338854    1.007023    -12.174110    26.500011    10.860520    -12.362953    -10.318215    13.635687    -5.350884    1.771660    6.582419    -3.281487    14.801849    20.491716    -1.414948    -12.087326    -14.411205    
116.050697    88.821068    -50.295734    -3.787515    3.012470    -72.894386    1.499043    15.306364    2.703883    5.958207    -1.778120    8.422789    -1.378672    -7.919618    8.235369    -18.904615    -1.061409    6.443924    -28.299267    48.962399    -33.692814    20.135187    -18.198065    -84.283699    107.335587    4.277925    59.417561    13.992447    -0.501632    -4.245752    -50.977085    79.597252    110.723801    -53.225086    -18.753389    36.274925    -104.300484    2.377038    -48.609940    20.537579    -9.704214    2.698797    -12.364564    26.512323    9.969517    -12.241348    -10.256342    13.076419    -5.441117    2.244348    6.726234    -3.262326    14.423685    20.551239    -1.307997    -12.095922    -14.287418    
